<?xml version="1.0" standalone="no"?>
<!DOCTYPE svg PUBLIC "-//W3C//DTD SVG 20010904//EN"
 "http://www.w3.org/TR/2001/REC-SVG-20010904/DTD/svg10.dtd">
<svg version="1.0" xmlns="http://www.w3.org/2000/svg"
 width="360.000000pt" height="360.000000pt" viewBox="0 0 360.000000 360.000000"
 preserveAspectRatio="xMidYMid meet">
<metadata>
Created by potrace 1.11, written by Peter Selinger 2001-2013
</metadata>
<g transform="translate(0.000000,360.000000) scale(0.100000,-0.100000)"
fill="#000000" stroke="none">
<path d="M1340 2666 l0 -154 -25 -6 c-46 -12 -60 -49 -65 -180 l-5 -121 -150
-5 c-164 -5 -184 -11 -215 -63 -19 -30 -20 -53 -20 -412 0 -359 1 -382 20
-412 35 -59 66 -67 248 -71 l162 -4 0 -31 c0 -18 -9 -108 -20 -202 -11 -93
-20 -182 -20 -197 l0 -28 550 0 550 0 0 28 c-1 15 -11 118 -23 229 l-23 201
166 4 c184 4 215 12 250 71 19 30 20 53 20 410 0 417 0 419 -63 457 -28 17
-51 20 -179 20 l-148 0 0 118 c0 130 -16 175 -65 188 l-25 6 0 154 0 154 -460
0 -460 0 0 -154z m880 -46 l0 -150 29 0 c52 0 61 -27 61 -177 l0 -133 166 0
166 0 29 -29 29 -29 0 -377 0 -377 -29 -29 -29 -29 -191 0 c-153 0 -191 -3
-191 -13 0 -16 37 -368 44 -415 l5 -32 -509 0 -509 0 5 32 c8 58 44 398 44
413 0 13 -29 15 -191 15 l-191 0 -29 29 -29 29 0 377 0 377 29 29 29 29 166 0
166 0 0 133 c0 150 9 177 61 177 l29 0 0 150 0 150 420 0 420 0 0 -150z"/>
<path d="M1440 2440 l0 -280 360 0 360 0 0 280 0 280 -360 0 -360 0 0 -280z"/>
<path d="M972 2102 c-9 -7 -12 -90 -10 -383 l3 -374 148 -3 147 -3 0 166 c0
152 2 167 20 185 19 19 33 20 518 20 414 0 501 -2 518 -14 17 -13 19 -30 22
-185 l3 -172 147 3 147 3 3 374 c2 293 -1 376 -10 383 -7 4 -380 8 -828 8
-448 0 -821 -4 -828 -8z m1580 -89 c40 -36 8 -113 -47 -113 -54 0 -85 71 -48
112 20 22 70 23 95 1z"/>
<path d="M1429 1558 c0 -2 -17 -155 -38 -340 l-37 -338 446 0 446 0 -38 338
c-20 185 -37 338 -37 340 -1 1 -167 2 -371 2 -203 0 -370 -1 -371 -2z"/>
</g>
</svg>
